<?xml version="1.0" encoding="UTF-8" standalone="no"?>
<svg
   xmlns:dc="http://purl.org/dc/elements/1.1/"
   xmlns:cc="http://creativecommons.org/ns#"
   xmlns:rdf="http://www.w3.org/1999/02/22-rdf-syntax-ns#"
   xmlns:svg="http://www.w3.org/2000/svg"
   xmlns="http://www.w3.org/2000/svg"
   xmlns:sodipodi="http://sodipodi.sourceforge.net/DTD/sodipodi-0.dtd"
   xmlns:inkscape="http://www.inkscape.org/namespaces/inkscape"
   version="1.1"
   viewBox="-40 -42 240 240"
   id="svg26"
   sodipodi:docname="tool-3456474.svg"
   inkscape:version="0.92.3 (2405546, 2018-03-11)">
  <metadata
     id="metadata32">
    <rdf:RDF>
      <cc:Work
         rdf:about="">
        <dc:format>image/svg+xml</dc:format>
        <dc:type
           rdf:resource="http://purl.org/dc/dcmitype/StillImage" />
      </cc:Work>
    </rdf:RDF>
  </metadata>
  <defs
     id="defs30" />
  <sodipodi:namedview
     pagecolor="#ffffff"
     bordercolor="#666666"
     borderopacity="1"
     objecttolerance="10"
     gridtolerance="10"
     guidetolerance="10"
     inkscape:pageopacity="0"
     inkscape:pageshadow="2"
     inkscape:window-width="1328"
     inkscape:window-height="689"
     id="namedview28"
     showgrid="false"
     inkscape:zoom="1.2521683"
     inkscape:cx="120"
     inkscape:cy="120"
     inkscape:window-x="2208"
     inkscape:window-y="169"
     inkscape:window-maximized="0"
     inkscape:current-layer="svg26" />
  <circle
     cx="80"
     cy="78"
     r="120"
     fill="rgba(0,0,0,0.5)"
     stroke="none"
     id="circle22"
     style="fill:#333333"
     inkscape:export-filename="C:\Users\rscott\Desktop\path24.png"
     inkscape:export-xdpi="96"
     inkscape:export-ydpi="96" />
  <path
     d="m20 0-2 4 21 12c0 10-4 18-13 23l-21-12-1 2c5 15 15 25 35 25 5 0 20 15 28 23l16-16c-8-8-26-26-26-31 0-18-5-30-37-30zm125 5-20 14-2 8-58 58-8-5-4 4c0 12-14 18-20 18l-33 33c0 10 11 21 21 21l33-33c0-6 6-20 18-20l4-4-5-8 58-58 8-2 14-20-6-6zm-50 68-16 16c12 12 28 28 28 33 0 18 5 30 37 30l2-4-21-12c0-10 4-18 13-23l21 12 1-2c-5-15-15-25-35-25-5 0-18-13-30-25z"
     fill="white"
     id="path24"
     inkscape:export-filename="C:\Users\rscott\Desktop\path24.png"
     inkscape:export-xdpi="96"
     inkscape:export-ydpi="96" />
</svg>
